# xmcd CD database file
# Copyright (C) 1993-1998 Ti Kan
#
# Track frame offsets:
# 150
# 10505
# 20187
# 32127
# 44512
# 62330
# 73455
# 85630
# 95180
# 105062
# 121200
# 133412
# 146205
# 157062
# 166387
# 179332
# 189155
# 203852
# 213692
# 226227
# 238065
# 247055
#
# Disc length: 3488 seconds
# Revision: 0
# Processed by: cddbd v1.4b41PL1 Copyright (c) Steve Scherf et al.
# Submitted via: CDSpectrumPro v3.3.331
#
DISCID=410d9e16
DTITLE=Various Artist - The Love Songs Collection
DYEAR=1900
DGENRE=
TTITLE0=ArtGene Chandler - Duke of Earl
TTITLE1=Shangri-las - Remember (walking in the sand)
TTITLE2=The Crewcuts - Sh Boom Sh Boom
TTITLE3=The Crystals - Then he kissed me
TTITLE4=Brook Benton - Rainy night in Georgia
TTITLE5=The Cascades - Rhythm of the rain
TTITLE6=Mary Wells - My Guy
TTITLE7=Peggy Lee - Let there be love
TTITLE8=Jimmy Clanton - Venus in Ble Jeans
TTITLE9=Jack Jones - Lying Eyes
TTITLE10=Gladys Knight - Letter full of tears
TTITLE11=Billie Jo Spears - It coulda been me
TTITLE12=The chiffons - Sweet talking guy
TTITLE13=Gladys Knight - Every beat of my heart
TTITLE14=Ray Peterson - Tell Laura I love her
TTITLE15=Billy Everett - It's in his kiss
TTITLE16=George McCrae - Rock your baby
TTITLE17=The Angels - My Boyfriends back
TTITLE18=The Foundations - Build me up Buttercup
TTITLE19=Bobby Vee - The night has a thousand eyes
TTITLE20=Wayne Fontana - Groovy kind of love
TTITLE21=Percy Sledge - Warm and tender love
EXTD=Various Artists
EXTT0=
EXTT1=
EXTT2=
EXTT3=
EXTT4=
EXTT5=
EXTT6=
EXTT7=
EXTT8=
EXTT9=
EXTT10=
EXTT11=
EXTT12=
EXTT13=
EXTT14=
EXTT15=
EXTT16=
EXTT17=
EXTT18=
EXTT19=
EXTT20=
EXTT21=
PLAYORDER=
